<svg fill="#000000" xmlns="http://www.w3.org/2000/svg"  viewBox="0 0 50 50" width="150px" height="150px"><path d="M 14.5 5 C 13.378906 5 12.457031 5.726563 11.886719 6.640625 C 11.3125 7.558594 11 8.726563 11 10 L 11 24.1875 C 10.683594 24.074219 10.351563 24 10 24 C 8.355469 24 7 25.355469 7 27 L 7 29.734375 C 5.839844 30.964844 4.761719 33.089844 3.8125 35.914063 C 2.777344 39.003906 2 42.875 2 47 C 1.996094 47.359375 2.183594 47.695313 2.496094 47.878906 C 2.808594 48.058594 3.191406 48.058594 3.503906 47.878906 C 3.816406 47.695313 4.003906 47.359375 4 47 C 4 43.125 4.738281 39.449219 5.710938 36.550781 C 6.105469 35.375 6.558594 34.429688 7 33.550781 L 7 36.183594 C 5.613281 39.085938 5 43.035156 5 47 C 4.996094 47.359375 5.183594 47.695313 5.496094 47.878906 C 5.808594 48.058594 6.191406 48.058594 6.503906 47.878906 C 6.816406 47.695313 7.003906 47.359375 7 47 C 7 43.890625 7.421875 40.765625 8.21875 38.394531 C 8.722656 38.769531 9.332031 39 10 39 C 10.351563 39 10.683594 38.925781 11 38.8125 L 11 47 C 10.996094 47.359375 11.183594 47.695313 11.496094 47.878906 C 11.808594 48.058594 12.191406 48.058594 12.503906 47.878906 C 12.816406 47.695313 13.003906 47.359375 13 47 L 13 28.78125 C 16.28125 30.117188 20.355469 31 25 31 C 29.644531 31 33.71875 30.117188 37 28.78125 L 37 47 C 36.996094 47.359375 37.183594 47.695313 37.496094 47.878906 C 37.808594 48.058594 38.191406 48.058594 38.503906 47.878906 C 38.816406 47.695313 39.003906 47.359375 39 47 L 39 38.8125 C 39.316406 38.925781 39.648438 39 40 39 C 40.667969 39 41.277344 38.769531 41.78125 38.394531 C 42.578125 40.765625 43 43.890625 43 47 C 42.996094 47.359375 43.183594 47.695313 43.496094 47.878906 C 43.808594 48.058594 44.191406 48.058594 44.503906 47.878906 C 44.816406 47.695313 45.003906 47.359375 45 47 C 45 43.035156 44.386719 39.085938 43 36.183594 L 43 33.550781 C 43.441406 34.429688 43.894531 35.375 44.289063 36.550781 C 45.261719 39.449219 46 43.125 46 47 C 45.996094 47.359375 46.183594 47.695313 46.496094 47.878906 C 46.808594 48.058594 47.191406 48.058594 47.503906 47.878906 C 47.816406 47.695313 48.003906 47.359375 48 47 C 48 42.875 47.222656 39.003906 46.1875 35.914063 C 45.238281 33.089844 44.160156 30.964844 43 29.734375 L 43 27 C 43 25.355469 41.644531 24 40 24 C 39.648438 24 39.316406 24.074219 39 24.1875 L 39 10 C 39 8.726563 38.6875 7.558594 38.113281 6.640625 C 37.542969 5.726563 36.621094 5 35.5 5 C 34.378906 5 33.457031 5.726563 32.886719 6.640625 C 32.492188 7.269531 32.414063 8.121094 32.28125 8.9375 C 30.027344 8.367188 27.597656 8 25 8 C 22.402344 8 19.96875 8.359375 17.71875 8.929688 C 17.585938 8.117188 17.503906 7.265625 17.113281 6.640625 C 16.542969 5.726563 15.621094 5 14.5 5 Z M 14.5 7 C 14.757813 7 15.089844 7.171875 15.421875 7.703125 C 15.75 8.230469 16 9.0625 16 10 C 16 9.921875 15.996094 9.949219 15.996094 10.101563 L 15.996094 11.4375 L 17.277344 11.0625 C 19.585938 10.386719 22.210938 10 25 10 C 27.789063 10 30.410156 10.394531 32.726563 11.074219 L 34.042969 11.457031 L 34.003906 10.085938 C 34.003906 9.960938 34 9.933594 34 10 C 34 9.0625 34.25 8.230469 34.578125 7.703125 C 34.910156 7.171875 35.242188 7 35.5 7 C 35.757813 7 36.089844 7.171875 36.421875 7.703125 C 36.75 8.230469 37 9.0625 37 10 L 37 26.765625 C 33.976563 28.113281 29.726563 29 25 29 C 20.273438 29 16.023438 28.113281 13 26.765625 L 13 10 C 13 9.0625 13.25 8.230469 13.578125 7.703125 C 13.910156 7.171875 14.242188 7 14.5 7 Z M 25 12 C 22.0625 12 19.390625 12.761719 17.386719 14.0625 C 15.378906 15.367188 14 17.289063 14 19.5 C 14 21.710938 15.378906 23.632813 17.386719 24.9375 C 19.390625 26.238281 22.0625 27 25 27 C 27.9375 27 30.609375 26.238281 32.613281 24.9375 C 34.621094 23.632813 36 21.710938 36 19.5 C 36 17.289063 34.621094 15.367188 32.613281 14.0625 C 30.609375 12.761719 27.9375 12 25 12 Z M 25 14 C 27.585938 14 29.910156 14.691406 31.527344 15.742188 C 33.140625 16.792969 34 18.121094 34 19.5 C 34 20.878906 33.140625 22.207031 31.527344 23.257813 C 29.910156 24.308594 27.585938 25 25 25 C 22.414063 25 20.089844 24.308594 18.472656 23.257813 C 16.859375 22.207031 16 20.878906 16 19.5 C 16 18.121094 16.859375 16.792969 18.472656 15.742188 C 20.089844 14.691406 22.414063 14 25 14 Z M 20 17 C 19.449219 17 19 17.449219 19 18 C 19 18.550781 19.449219 19 20 19 C 20.550781 19 21 18.550781 21 18 C 21 17.449219 20.550781 17 20 17 Z M 30 17 C 29.449219 17 29 17.449219 29 18 C 29 18.550781 29.449219 19 30 19 C 30.550781 19 31 18.550781 31 18 C 31 17.449219 30.550781 17 30 17 Z M 26.980469 18.984375 C 26.679688 18.996094 26.402344 19.140625 26.21875 19.375 C 25.898438 19.777344 25.476563 20 25 20 C 24.527344 20 24.101563 19.777344 23.78125 19.375 C 23.59375 19.136719 23.308594 18.992188 23 18.988281 C 22.613281 18.984375 22.257813 19.207031 22.089844 19.554688 C 21.921875 19.90625 21.972656 20.324219 22.21875 20.625 C 22.875 21.445313 23.882813 22 25 22 C 26.121094 22 27.125 21.445313 27.78125 20.625 C 28.035156 20.320313 28.085938 19.898438 27.914063 19.542969 C 27.742188 19.191406 27.375 18.96875 26.980469 18.984375 Z M 10 26 C 10.554688 26 11 26.445313 11 27 L 11 36 C 11 36.554688 10.554688 37 10 37 C 9.445313 37 9 36.554688 9 36 L 9 27 C 9 26.445313 9.445313 26 10 26 Z M 40 26 C 40.554688 26 41 26.445313 41 27 L 41 36 C 41 36.554688 40.554688 37 40 37 C 39.445313 37 39 36.554688 39 36 L 39 27 C 39 26.445313 39.445313 26 40 26 Z"/></svg>