<svg fill="#000000" xmlns="http://www.w3.org/2000/svg"  viewBox="0 0 24 24" width="192px" height="192px"><path d="M 12 2 C 9.5166869 2 7.0048981 2.7664349 5.1074219 4.5449219 C 3.2099456 6.3234089 2 9.08921 2 12.800781 C 2 13.976972 2.8651995 14.721945 3.4609375 15.103516 C 3.6920222 15.251525 3.8552478 15.340337 4 15.423828 L 4 21 L 6 21 L 6 15 C 6 14.564732 5.772647 14.280081 5.6210938 14.128906 C 5.4695403 13.977732 5.3411605 13.896963 5.21875 13.820312 C 4.9739291 13.667015 4.7411935 13.547434 4.5390625 13.417969 C 4.1348005 13.159039 4 13.024591 4 12.800781 C 4 9.5123529 5.0113356 7.3754193 6.4746094 6.0039062 C 7.9378831 4.6323934 9.9263131 4 12 4 C 14.073687 4 16.062117 4.6323934 17.525391 6.0039062 C 18.988664 7.3754192 20 9.5123529 20 12.800781 C 20 13.024591 19.8652 13.159039 19.460938 13.417969 C 19.258806 13.547434 19.026071 13.667015 18.78125 13.820312 C 18.65884 13.896963 18.53046 13.977732 18.378906 14.128906 C 18.227353 14.280081 18 14.564732 18 15 L 18 21 L 20 21 L 20 15.423828 C 20.144752 15.340338 20.307978 15.251525 20.539062 15.103516 C 21.1348 14.721945 22 13.976972 22 12.800781 C 22 9.0892101 20.790054 6.3234089 18.892578 4.5449219 C 16.995102 2.7664349 14.483313 2 12 2 z M 8.5 8 A 2.5 2.5 0 0 0 8.5 13 A 2.5 2.5 0 0 0 8.5625 12.998047 C 8.2147718 13.590194 8 14.268369 8 15 L 8 17 A 1.0001 1.0001 0 1 0 10 17 L 10 15 C 10 13.953092 10.779677 13.120622 11.796875 13.019531 A 1 1 0 0 0 12 15 A 1 1 0 0 0 12.185547 13.019531 C 13.211303 13.112673 14 13.947113 14 15 L 14 17 A 1.0001 1.0001 0 1 0 16 17 L 16 15 C 16 14.268702 15.786889 13.590012 15.439453 12.998047 A 2.5 2.5 0 0 0 15.5 13 A 2.5 2.5 0 0 0 15.5 8 A 2.5 2.5 0 0 0 13.095703 11.173828 C 12.74497 11.072271 12.381984 11 12 11 C 11.618668 11 11.256451 11.072605 10.90625 11.173828 A 2.5 2.5 0 0 0 8.5 8 z"/></svg>